<svg width="752" height="324" viewBox="0 0 752 324" fill="none" xmlns="http://www.w3.org/2000/svg" role="img" aria-labelledby="logoIconTitle" shape-rendering="geometricPrecision">
<title id="logoIconTitle">kudesi</title>
<defs>
<linearGradient id="logoGrad" gradientUnits="userSpaceOnUse" x1="0" y1="162" x2="752" y2="162">
<stop offset="0%" stop-color="#2d7bff"/>
<stop offset="100%" stop-color="#00e5ff"/>
</linearGradient>
</defs>
<path d="M439.395 0C442.115 0.195002 444.739 0.537106 446.94 2.34629C448.531 3.65714 449.638 6.10436 449.119 8.17355C447.59 14.3406 436.834 31.9387 433.504 38.692C426.027 53.8634 419.862 69.1996 414.495 85.2331C396.827 137.987 389.863 193.696 386.806 249.037C385.968 264.248 384.77 279.652 385.341 294.887C385.592 301.638 387.901 308.067 388.38 314.703C388.546 317.059 388.032 318.69 386.441 320.463C384.725 322.38 382.25 323.301 379.695 323.307C376.638 323.314 374.06 321.745 372.041 319.572C355.747 302.081 363.6 214.835 364.404 188.971C355.053 210.349 345.365 232.599 328.994 249.837C322.52 256.456 314.036 263.175 304.323 263.108C284.891 262.973 284.385 240.067 284.666 225.815C273.209 241.385 249.172 275.774 227.976 264.875C203.284 252.177 211.46 197.727 214.815 177.721C199.245 202.019 187.185 235.233 162.967 252.373C150.834 260.96 135.151 254.087 128.032 241.981C123.235 230.221 123.825 217.933 125.385 205.697C128.233 183.365 134.1 161.415 142.334 140.514C145.833 131.634 145.342 123.071 157.788 124.135C163.571 124.63 171.489 129.466 171.27 135.942C171.2 137.083 169.951 140.164 169.441 141.457C160.38 164.418 153.467 188.361 149.738 212.771C146.203 236.009 155 235.763 166.752 218.221C189.544 184.201 204.808 145.266 230.79 113.429C238.885 103.509 259.376 111.345 257.372 118.971C248.844 151.401 239.791 183.822 236.671 217.368C236.548 220.23 236.181 222.438 236.239 225.379C236.327 229.84 234.734 245.252 241.937 245.019C246.053 244.885 251.711 238.07 254.94 234.923C267.394 222.784 279.681 208.795 288.057 193.446C290.788 187.754 291.585 181.296 293.507 175.296C304.362 141.406 325.796 116.887 363.589 116.936C370.438 100.828 378.816 84.5625 386.915 69.0427C395.84 51.947 403.813 35.9043 414.997 20.0567C421.55 10.7747 427.578 2.25564 439.395 0Z" fill="url(#logoGrad)"/>
<path d="M352.276 134.405C352.825 134.406 353.846 134.539 354.434 134.595L354.858 135.526C354.716 137.907 351.552 146.139 350.592 148.756C342.576 170.584 326.923 231.074 306.247 240.199C302.475 237.249 302.273 231.33 302.737 226.864C306.101 194.466 317.64 146.552 352.276 134.405Z" fill="#07070d"/>
<path d="M603.656 107.232C626.549 104.855 633.01 114.566 627.507 136.009C626.064 141.652 620.743 161.304 614.047 160.427C598.563 158.401 617.737 140.589 608.749 131.576C606.439 130.555 604.352 130.732 602.048 131.641C588.155 137.12 562.052 152.594 555.334 165.914C563.512 177.509 582.292 180.59 594.999 186.585C603.519 190.605 606.901 192.048 614.698 197.652C626.731 189.414 639.375 182.11 652.526 175.806C654.072 164.421 657.602 152.127 661.275 140.885C666.254 125.636 687.173 128.642 688.707 143.686C689.026 146.837 686.272 156.731 685.399 160.259C679.873 182.476 674.945 205.213 675.453 228.244C675.647 232.901 676.788 239.221 680.597 242.348C688.011 248.435 699.269 235.958 704.003 230.898C714.747 219.415 723.04 205.488 731.549 192.314C735.096 186.819 737.794 180.544 741.535 175.152C743.856 171.813 747.655 171.233 750.597 174.112C753.141 179.013 747.968 187.482 745.704 192.327C735.564 214.023 722.658 236.687 703.832 252.038C696.971 257.636 686.392 262.561 677.21 261.073C646.869 254.982 646.675 212.283 650.445 189.314C640.419 196.12 631.191 201.465 621.353 209.036C628.55 229.077 603.896 251.575 588.309 260.468C573.339 269.009 546.043 280.101 528.791 275.793C511.705 270.897 517.596 246.527 527.651 244.895C555.254 240.416 583.804 233.185 605.008 211.605C596.59 204.83 580.73 200.482 570.533 196.259C562.343 192.867 558.676 191.034 551.148 186.258C545.587 197.612 538.937 208.401 531.301 218.475C510.576 246.286 471.258 279.054 434.04 253.84C422.422 245.004 416.982 231.174 415.168 216.897C410.201 177.782 435.773 123.453 476.785 114.302C487.632 111.881 504.336 118.836 504.576 132.224C505.004 155.638 484.906 189.986 459.995 193.66C452.951 194.617 447.75 191.1 442.691 186.855C439.287 208.828 436.982 250.396 473.522 242.112C498.439 236.462 529.658 200.692 542.519 178.854C534.979 166.004 534.255 156.138 543.494 143.566C556.725 125.551 581.819 110.998 603.656 107.232Z" fill="url(#logoGrad)"/>
<path d="M479.356 126.771C490.09 131.071 467.021 173.392 451.012 175.177C449.061 174.339 448.565 174.267 447.134 172.792C447.157 169.019 450.767 162.882 452.66 159.482C459.453 147.282 467.483 134.625 479.356 126.771Z" fill="#07070d"/>
<path d="M59.4805 4.4988C66.4646 3.97823 74.9514 7.33433 72.896 15.9213C71.2187 22.9282 68.739 29.6569 66.4765 36.4974C62.9617 47.2602 59.5438 58.0543 56.2229 68.878C48.4045 94.6354 42.5337 119.208 37.6906 145.709C34.9964 160.45 32.5275 171.648 30.9809 186.751C34.287 180.895 37.1705 173.96 40.5461 168.112C51.2515 149.564 62.3002 130.805 77.8857 115.867C85.2415 108.911 94.492 100.629 105.244 100.86C117.06 101.114 120.126 110.785 118.961 121.007C115.577 150.699 103.511 180.753 80.6847 200.78C88.2545 220.95 92.9328 242.089 94.581 263.568C95.1399 271.908 97.6892 287.368 92.7428 294.688C90.1268 298.559 82.2428 298.483 80.3021 293.787C74.2978 279.259 73.1908 262.781 69.4313 247.332C66.4931 235.564 62.7148 224.022 58.1255 212.795C57.3584 210.883 54.2941 201.691 51.7807 202.085C50.2928 202.319 48.0891 205.896 47.4988 207.472C41.1056 224.77 36.5306 242.901 29.8653 260.091C22.8915 279.566 9.01584 276.079 3.64178 257.764C-1.36043 240.715 -0.183291 221.386 1.18774 203.895C5.65443 151.032 16.4504 98.8941 33.3442 48.6024C37.0393 37.8579 41.6138 26.164 46.2647 15.7223C49.2274 9.06939 52.833 6.69628 59.4805 4.4988Z" fill="url(#logoGrad)"/>
<path d="M94.6026 120.551L95.7255 120.767C96.6477 121.723 96.9808 122.472 96.7059 123.905C93.0268 143.048 83.8248 169.353 70.0563 183.143C68.6721 181.936 66.8751 180.622 65.3991 179.479L59.6641 177.333C66.3287 160.401 81.1306 132.464 94.6026 120.551Z" fill="#07070d"/>
<path d="M689.094 84.3029C692.687 84.2778 701.556 87.0061 700.626 90.8617C699.406 95.9494 691.404 114.825 688.068 117.887C670.48 125.037 677.671 95.1176 682.08 87.3625C685.119 85.567 685.713 85.2597 689.094 84.3029Z" fill="url(#logoGrad)"/>
</svg>
